<?xml version="1.0" encoding="UTF-8" standalone="no"?>
<!DOCTYPE svg PUBLIC "-//W3C//DTD SVG 20010904//EN"
              "http://www.w3.org/TR/2001/REC-SVG-20010904/DTD/svg10.dtd">

<svg xmlns="http://www.w3.org/2000/svg"
     width="3.38499in" height="2.70799in"
     viewBox="0 0 325 260">
  <path id="Auswahl #1"
        fill="none" stroke="black" stroke-width="1"
        d="M 221.00,71.09
           C 223.40,73.34 227.04,76.60 227.51,80.00
             227.91,82.90 225.81,87.37 224.62,90.00
             224.62,90.00 214.82,110.00 214.82,110.00
             214.82,110.00 210.97,118.00 210.97,118.00
             210.97,118.00 209.02,123.91 209.02,123.91
             209.02,123.91 205.59,130.09 205.59,130.09
             205.59,130.09 197.95,146.00 197.95,146.00
             197.95,146.00 194.22,155.00 194.22,155.00
             194.22,155.00 184.86,173.00 184.86,173.00
             183.14,176.86 176.35,192.10 173.53,193.98
             171.65,195.23 168.22,195.00 166.00,195.00
             166.00,195.00 159.00,195.00 159.00,195.00
             150.73,194.84 151.33,191.51 147.22,184.04
             147.22,184.04 132.34,154.00 132.34,154.00
             132.34,154.00 106.94,99.00 106.94,99.00
             105.14,94.39 98.94,84.40 99.50,80.00
             99.89,76.85 102.86,74.15 105.00,72.01
             110.37,66.68 119.79,59.29 127.00,57.00
             127.00,57.00 136.73,74.00 136.73,74.00
             136.73,74.00 144.31,91.00 144.31,91.00
             144.31,91.00 164.00,130.00 164.00,130.00
             164.00,130.00 176.75,103.00 176.75,103.00
             176.75,103.00 199.00,57.00 199.00,57.00
             206.80,58.58 215.26,65.71 221.00,71.09 Z" />
</svg>
